# xmcd
#
# Track frame offsets:
#	150
#	22201
#	37848
#	54397
#	70307
#	89104
#	107991
#	125122
#	147862
#	172838
#	195558
#	213042
#
# Disc length: 3067 seconds
#
# Revision: 1
# Processed by: cddbd v1.5.2PL0 Copyright (c) Steve Scherf et al.
# Submitted via: audiograbber 1.83.01
#
DISCID=ad0bf90c
DTITLE=Wynonna Judd - Wynonna and The Big Noise
DYEAR=2016
DGENRE=Country
TTITLE0=Ain't No Thing w Susan Tedeschi
TTITLE1=Cool Ya
TTITLE2=Things That I Lean On w Jason Isbell
TTITLE3=You Make My Heart Beat Too Fast w Cactus Moser
TTITLE4=Staying In Love
TTITLE5=Keeps Me Alive w Derek Trucks
TTITLE6=Jesus And A Jukebox
TTITLE7=I Can See Everything w Timothy Schmit
TTITLE8=Something You Can't Live Without
TTITLE9=You Are So Beautiful
TTITLE10=Every Ending (Is A New Beginning)
TTITLE11=Choose To Believe
EXTD=
EXTT0=
EXTT1=
EXTT2=
EXTT3=
EXTT4=
EXTT5=
EXTT6=
EXTT7=
EXTT8=
EXTT9=
EXTT10=
EXTT11=
PLAYORDER=
